<!DOCTYPE svg PUBLIC "-//W3C//DTD SVG 1.1//EN" "http://www.w3.org/Graphics/SVG/1.1/DTD/svg11.dtd">
<!-- Uploaded to: SVG Repo, www.svgrepo.com, Transformed by: SVG Repo Mixer Tools -->
<svg fill="#ffffff" height="168px" width="168px" version="1.1" id="Layer_1" xmlns="http://www.w3.org/2000/svg" xmlns:xlink="http://www.w3.org/1999/xlink" viewBox="-261.12 -261.12 1034.24 1034.24" xml:space="preserve" stroke="#ffffff" stroke-width="17.919999999999998" transform="rotate(0)">
<g id="SVGRepo_bgCarrier" stroke-width="0">
<rect x="-261.12" y="-261.12" width="1034.24" height="1034.24" rx="196.50560000000002" fill="#383838" strokewidth="0"/>
</g>
<g id="SVGRepo_tracerCarrier" stroke-linecap="round" stroke-linejoin="round"/>
<g id="SVGRepo_iconCarrier"> <g> <g> <g> <path d="M256,0C114.88,0,0,114.88,0,256s114.88,256,256,256s256-114.88,256-256S397.12,0,256,0z M256,490.667 c-129.387,0-234.667-105.28-234.667-234.667S126.613,21.333,256,21.333S490.667,126.613,490.667,256S385.387,490.667,256,490.667 z"/> <path d="M263.573,99.093c-2.027-1.92-4.693-3.093-7.467-3.093H256c-2.773,0-5.44,1.173-7.467,3.093L131.2,216.427 c-4.267,4.053-4.373,10.88-0.213,15.04c4.16,4.16,10.88,4.373,15.04,0.213c0.107-0.107,0.213-0.213,0.213-0.213l99.093-99.093 v272.533c0,5.333,3.84,10.133,9.067,10.88c6.613,0.96,12.267-4.16,12.267-10.56V132.373l99.093,99.093 c4.267,4.053,10.987,3.947,15.04-0.213c3.947-4.16,3.947-10.667,0-14.827L263.573,99.093z"/> </g> </g> </g> </g>
</svg>